<svg xmlns="http://www.w3.org/2000/svg" width="7.64" height="11.813" viewBox="0 0 7.64 11.813">
  <g id="kitchen-or-dining-room-door-with-oval-window-svgrepo-com" transform="translate(-91.8)">
    <path id="Path_525" data-name="Path 525" d="M128.138,46.389h6.01V35.381h-6.01Zm5.607-3.8h-1V40.2h1v2.391Zm-2.565-6.542c.869,0,1.565,1.108,1.565,2.467s-.706,2.467-1.565,2.467-1.565-1.1-1.565-2.467S130.311,36.044,131.181,36.044Z" transform="translate(-35.512 -34.577)" fill="#13436c"/>
    <path id="Path_526" data-name="Path 526" d="M96.1,0l.663.6h6.14l.663-.6Z" transform="translate(-4.205)" fill="#13436c"/>
    <path id="Path_527" data-name="Path 527" d="M401.625,20.69h.6V9.084l-.6.554Z" transform="translate(-302.783 -8.878)" fill="#13436c"/>
    <path id="Path_528" data-name="Path 528" d="M92.4,9.638l-.6-.554V20.69h.6Z" transform="translate(0 -8.878)" fill="#13436c"/>
    <path id="Path_529" data-name="Path 529" d="M203.138,77.7c.75,0,1.369-1.022,1.369-2.271s-.609-2.271-1.369-2.271-1.369,1.021-1.369,2.271S202.388,77.7,203.138,77.7Z" transform="translate(-107.47 -71.49)" fill="#13436c"/>
    <path id="Path_530" data-name="Path 530" d="M340.545,255.319h-.6v.315a.316.316,0,0,1,.1-.022.3.3,0,0,1,.3.3v.8a.3.3,0,0,1-.3.3.317.317,0,0,1-.1-.022v.315h.6Z" transform="translate(-242.507 -249.516)" fill="#13436c"/>
    <path id="Path_531" data-name="Path 531" d="M340.045,278.79a.1.1,0,0,0,.1-.1v-.8a.1.1,0,0,0-.1-.1.083.083,0,0,0-.087.065c0,.011-.011.022-.011.043v.8a.082.082,0,0,0,.011.043A.13.13,0,0,0,340.045,278.79Z" transform="translate(-242.507 -271.476)" fill="#13436c"/>
  </g>
</svg>
