<svg id="worker-svgrepo-com" xmlns="http://www.w3.org/2000/svg" width="28.72" height="35" viewBox="0 0 28.72 35">
  <g id="Group_11" data-name="Group 11" transform="translate(3.383 21.05)">
    <g id="Group_10" data-name="Group 10" transform="translate(0)">
      <path id="Path_561" data-name="Path 561" d="M97.286,309.4a2.219,2.219,0,0,1-1.862.635v10.174a1.668,1.668,0,1,0,3.336,0V307.931Z" transform="translate(-95.424 -307.931)" fill="#fff"/>
    </g>
  </g>
  <g id="Group_13" data-name="Group 13" transform="translate(0 6.68)">
    <g id="Group_12" data-name="Group 12">
      <path id="Path_562" data-name="Path 562" d="M50.666,97.713H49.271a3.3,3.3,0,0,0-3.289,3.273L45.931,111.2a1.39,1.39,0,0,0,1.383,1.4h.007a1.39,1.39,0,0,0,1.39-1.383L48.762,101h0a.277.277,0,0,1,.553,0l0,1.027a1.329,1.329,0,0,1,.421-.519,2.1,2.1,0,0,1,2.43.1Z" transform="translate(-45.931 -97.713)" fill="#fff"/>
    </g>
  </g>
  <g id="Group_15" data-name="Group 15" transform="translate(7.439 18.629)">
    <g id="Group_14" data-name="Group 14">
      <path id="Path_563" data-name="Path 563" d="M158.065,272.509c-2.517.83-2.313.764-2.391.787l-.915.915v13a1.668,1.668,0,1,0,3.336,0C158.1,272.9,158.065,272.519,158.065,272.509Z" transform="translate(-154.759 -272.509)" fill="#fff"/>
    </g>
  </g>
  <g id="Group_17" data-name="Group 17" transform="translate(4.199)">
    <g id="Group_16" data-name="Group 16" transform="translate(0 0)">
      <circle id="Ellipse_14" data-name="Ellipse 14" cx="2.881" cy="2.881" r="2.881" fill="#fff"/>
    </g>
  </g>
  <g id="Group_19" data-name="Group 19" transform="translate(3.65 11.704)">
    <g id="Group_18" data-name="Group 18">
      <path id="Path_564" data-name="Path 564" d="M102.377,173.619l.708-.233-1.97-1.97a.691.691,0,0,0-.977,0l-.322.322-.05,7.959a2.681,2.681,0,0,1-.434,1.449h.018a.688.688,0,0,0,.488-.2l2.189-2.189a2.779,2.779,0,0,1,.35-5.137Z" transform="translate(-99.332 -171.214)" fill="#fff"/>
    </g>
  </g>
  <g id="Group_21" data-name="Group 21" transform="translate(6.089 6.68)">
    <g id="Group_20" data-name="Group 20">
      <path id="Path_565" data-name="Path 565" d="M143.027,100.987a3.3,3.3,0,0,0-3.289-3.273H138.37l-1.782,4.621.415-1.96a.579.579,0,0,0-.059-.4l-.565-1.028.5-.912a.2.2,0,0,0-.179-.3h-1.378a.2.2,0,0,0-.179.3l.5.914-.566,1.03a.58.58,0,0,0-.061.392l.269,1.355c1.49,1.455.7.668,2.671,2.644l1.7-.562V101a.291.291,0,0,1,.582,0v0c-.012,3.223.012,2.45.02,4.073l-4.216,1.391a1.39,1.39,0,0,0,.871,2.64L142.1,107.4a1.39,1.39,0,0,0,.955-1.327C143.048,105.242,143.034,102.344,143.027,100.987Z" transform="translate(-135.01 -97.714)" fill="#fff"/>
    </g>
  </g>
  <g id="Group_23" data-name="Group 23" transform="translate(17.172 7.764)">
    <g id="Group_22" data-name="Group 22">
      <path id="Path_566" data-name="Path 566" d="M307.607,113.577h-9.4a1.075,1.075,0,0,0-1.075,1.075v22.866a1.075,1.075,0,0,0,1.075,1.075h.272v1.258a.962.962,0,1,0,1.925,0v-1.258h5v1.258a.962.962,0,1,0,1.925,0v-1.258h.272a1.075,1.075,0,0,0,1.075-1.075V114.652A1.075,1.075,0,0,0,307.607,113.577Zm-.734,18.136a.58.58,0,0,1-.58.58h-6.769a.58.58,0,0,1-.58-.58v-3.2a.58.58,0,0,1,.58-.58h6.769a.58.58,0,0,1,.58.58Zm0-6.276a.58.58,0,0,1-.58.58h-6.769a.58.58,0,0,1-.58-.58v-3.2a.58.58,0,0,1,.58-.58h6.769a.58.58,0,0,1,.58.58Zm0-6.276a.58.58,0,0,1-.58.58h-6.769a.58.58,0,0,1-.58-.58v-3.2a.58.58,0,0,1,.58-.58h6.769a.58.58,0,0,1,.58.58Z" transform="translate(-297.134 -113.577)" fill="#fff"/>
    </g>
  </g>
  <g id="Group_25" data-name="Group 25" transform="translate(21.215 11.053)">
    <g id="Group_24" data-name="Group 24">
      <path id="Path_567" data-name="Path 567" d="M359.041,161.7h-2.079a.692.692,0,1,0,0,1.385h2.079a.692.692,0,0,0,0-1.385Z" transform="translate(-356.27 -161.696)" fill="#fff"/>
    </g>
  </g>
  <g id="Group_27" data-name="Group 27" transform="translate(21.215 17.329)">
    <g id="Group_26" data-name="Group 26">
      <path id="Path_568" data-name="Path 568" d="M359.041,253.5h-2.079a.692.692,0,1,0,0,1.385h2.079a.692.692,0,0,0,0-1.385Z" transform="translate(-356.27 -253.504)" fill="#fff"/>
    </g>
  </g>
  <g id="Group_29" data-name="Group 29" transform="translate(21.215 23.605)">
    <g id="Group_28" data-name="Group 28">
      <path id="Path_569" data-name="Path 569" d="M359.041,345.311h-2.079a.692.692,0,0,0,0,1.385h2.079a.692.692,0,0,0,0-1.385Z" transform="translate(-356.27 -345.311)" fill="#fff"/>
    </g>
  </g>
</svg>
