<svg xmlns="http://www.w3.org/2000/svg" width="16" height="20" viewBox="0 0 16 20">
  <path id="clipboard-done-svgrepo-com" d="M19.661,6.433a2.858,2.858,0,0,0-2.489-2.577c-.519,0-1.037-.1-1.556-.1L15.1,2.825A1.831,1.831,0,0,0,13.542,2H10.534a1.973,1.973,0,0,0-1.556.825l-.622.928c-.519,0-1.037.1-1.556.1A2.768,2.768,0,0,0,4.311,6.433C4.1,8.392,4,11.278,4,13.34s.207,4.33.311,5.876A2.669,2.669,0,0,0,6.8,21.691c1.452.1,3.63.309,5.186.309s3.734-.206,5.186-.309a2.669,2.669,0,0,0,2.489-2.474c.1-1.546.311-3.917.311-5.876A50.575,50.575,0,0,0,19.661,6.433ZM9.5,4.784h0l.726-1.237c0-.1.1-.1.208-.1h3.008c.1,0,.1,0,.208.1l.726,1.237v.1c.1.1,0,.309,0,.412s-.1.1-.207.1H9.808c-.1,0-.1,0-.207-.1A.925.925,0,0,1,9.5,4.784Zm6.119,6.7-4.149,4.124c-.207.1-.311.206-.519.206a.8.8,0,0,1-.519-.206L8.356,13.546a.806.806,0,0,1,0-1.134.817.817,0,0,1,1.141,0l1.556,1.546,3.63-3.608a.817.817,0,0,1,1.141,0A1.118,1.118,0,0,1,15.616,11.484Z" transform="translate(-4 -2)" fill="#13436c"/>
</svg>
