<svg xmlns="http://www.w3.org/2000/svg" width="18.653" height="17.866" viewBox="0 0 18.653 17.866">
  <path id="home-svgrepo-com" d="M18.325,13.9,15.991,12V8.96a.622.622,0,0,0-.621-.621H13.9a.622.622,0,0,0-.621.621v.832L10.161,7.251a1.369,1.369,0,0,0-1.67,0L.328,13.9c-.371.3-.349.565-.3.7s.195.347.671.347H1.814V23.7a1.132,1.132,0,0,0,1.13,1.133h3.53a1.105,1.105,0,0,0,1.1-1.133V20.11a.614.614,0,0,1,.593-.588h2.372a.565.565,0,0,1,.537.588V23.7a1.161,1.161,0,0,0,1.158,1.133h3.474a1.132,1.132,0,0,0,1.13-1.133V14.947h1.118c.476,0,.625-.218.671-.347S18.7,14.207,18.325,13.9Z" transform="translate(0 -6.966)" fill="#13436c"/>
</svg>
