<svg xmlns="http://www.w3.org/2000/svg" width="14.132" height="10.258" viewBox="0 0 14.132 10.258">
  <g id="money-cash-svgrepo-com" transform="translate(1 -68.179)">
    <path id="Path_532" data-name="Path 532" d="M7.828,148.51H21.473v7.8H7.828Z" transform="translate(-8.584 -78.114)" fill="#fff"/>
    <path id="Path_533" data-name="Path 533" d="M13.132,147.967H-1v-8.284H13.132ZM-.513,147.48H12.645v-7.31H-.513Z" transform="translate(0 -69.53)" fill="#13436c"/>
    <path id="Path_534" data-name="Path 534" d="M37.666,114.175H25.483V113.2Z" transform="translate(-25.752 -43.778)" fill="#d0e8f9"/>
    <path id="Path_535" data-name="Path 535" d="M29.082,104.976H16.655V103.49l12.451,1Zm-11.939-.487H22.99l-5.848-.463Z" transform="translate(-17.168 -34.336)" fill="#13436c"/>
    <path id="Path_536" data-name="Path 536" d="M146.576,178.161a3.168,3.168,0,1,1-3.168-3.168,3.161,3.161,0,0,1,3.168,3.168Z" transform="translate(-137.342 -103.866)" fill="#fff"/>
    <path id="Path_537" data-name="Path 537" d="M134.825,172.989a3.411,3.411,0,1,1,3.411-3.411A3.421,3.421,0,0,1,134.825,172.989Zm0-6.335a2.924,2.924,0,1,0,2.924,2.924A2.933,2.933,0,0,0,134.825,166.653Z" transform="translate(-128.759 -95.282)" fill="#13436c"/>
    <path id="Path_538" data-name="Path 538" d="M55.888,198.01a3.16,3.16,0,0,1,0-5.361H53.427v.122a1.352,1.352,0,0,1-1.34,1.34h-.122v2.437h.122a1.352,1.352,0,0,1,1.34,1.34v.122h2.461Z" transform="translate(-51.503 -121.034)" fill="#d0e8f9"/>
    <path id="Path_539" data-name="Path 539" d="M48.158,189.669H44.577l.024-.268v-.1a1.092,1.092,0,0,0-1.1-1.1h-.1l-.268.024v-2.973l.268.024h.1a1.092,1.092,0,0,0,1.1-1.1v-.1l-.024-.268h3.582l-.707.439a2.913,2.913,0,0,0-1.364,2.485,2.943,2.943,0,0,0,1.364,2.485Zm-3.07-.487H46.6a3.412,3.412,0,0,1,0-4.873H45.088a1.592,1.592,0,0,1-1.462,1.462v1.949A1.613,1.613,0,0,1,45.088,189.182Z" transform="translate(-42.921 -112.45)" fill="#13436c"/>
    <path id="Path_540" data-name="Path 540" d="M319.711,194.11a1.352,1.352,0,0,1-1.34-1.34v-.122H315.91a3.16,3.16,0,0,1,0,5.361h2.461v-.122a1.352,1.352,0,0,1,1.34-1.34h.122V194.11Z" transform="translate(-308.163 -121.033)" fill="#d0e8f9"/>
    <path id="Path_541" data-name="Path 541" d="M288.6,189.669h-3.582l.707-.439a2.913,2.913,0,0,0,1.365-2.485,2.975,2.975,0,0,0-1.365-2.485l-.707-.439H288.6l-.024.268v.1a1.092,1.092,0,0,0,1.1,1.1h.1l.268-.024v2.973l-.268-.024h-.1a1.092,1.092,0,0,0-1.1,1.1v.1Zm-2.022-.487h1.511a1.592,1.592,0,0,1,1.462-1.462V185.77a1.592,1.592,0,0,1-1.462-1.462h-1.511a3.412,3.412,0,0,1,0,4.873Z" transform="translate(-278.119 -112.45)" fill="#13436c"/>
    <path id="Path_542" data-name="Path 542" d="M34.919,176.211a.609.609,0,1,1,.609-.609.6.6,0,0,1-.609.609Z" transform="translate(-34.335 -103.866)" fill="#fff"/>
    <path id="Path_543" data-name="Path 543" d="M26.335,167.871a.853.853,0,1,1,.853-.853A.863.863,0,0,1,26.335,167.871Zm0-1.218a.365.365,0,1,0,.365.365A.375.375,0,0,0,26.335,166.652Z" transform="translate(-25.751 -95.281)" fill="#13436c"/>
    <path id="Path_544" data-name="Path 544" d="M432.161,176.211a.609.609,0,1,1,.609-.609.6.6,0,0,1-.609.609Z" transform="translate(-420.613 -103.866)" fill="#fff"/>
    <path id="Path_545" data-name="Path 545" d="M423.577,167.871a.853.853,0,1,1,.853-.853A.863.863,0,0,1,423.577,167.871Zm0-1.218a.365.365,0,1,0,.366.365A.375.375,0,0,0,423.577,166.652Z" transform="translate(-412.028 -95.281)" fill="#13436c"/>
    <path id="Path_546" data-name="Path 546" d="M34.919,361.59a.609.609,0,1,1,.609-.609.6.6,0,0,1-.609.609Z" transform="translate(-34.335 -284.128)" fill="#fff"/>
    <path id="Path_547" data-name="Path 547" d="M26.335,353.25a.853.853,0,1,1,.853-.853A.863.863,0,0,1,26.335,353.25Zm0-1.218a.365.365,0,1,0,.365.366A.375.375,0,0,0,26.335,352.031Z" transform="translate(-25.751 -275.544)" fill="#13436c"/>
    <path id="Path_548" data-name="Path 548" d="M432.161,361.59a.609.609,0,1,1,.609-.609.6.6,0,0,1-.609.609Z" transform="translate(-420.613 -284.128)" fill="#fff"/>
    <path id="Path_549" data-name="Path 549" d="M423.577,353.25a.853.853,0,1,1,.853-.853A.863.863,0,0,1,423.577,353.25Zm0-1.218a.365.365,0,1,0,.366.366A.375.375,0,0,0,423.577,352.031Z" transform="translate(-412.028 -275.544)" fill="#13436c"/>
    <path id="Path_550" data-name="Path 550" d="M51.966,77.89v1.023l11.452.926h.731Z" transform="translate(-51.504 -9.443)" fill="#d0e8f9"/>
    <path id="Path_551" data-name="Path 551" d="M55.565,70.64h-.731l-11.7-.926V68.179l12.475,1.974ZM43.625,69.251l6.53.512-6.53-1.023Z" transform="translate(-42.92)" fill="#13436c"/>
    <path id="Path_552" data-name="Path 552" d="M194.559,226.4a.425.425,0,0,0,.292-.414v-.219a.42.42,0,0,0-.219-.365c-.1-.8-.609-1.121-1.462-1.121h-.122a1.239,1.239,0,0,1-.828-.195,1.1,1.1,0,0,1-.244-.219c-.024-.024-.073-.024-.073.024a.866.866,0,0,0,.049.244c.073.341.024.292-.1.634a2.474,2.474,0,0,0-.146.609.4.4,0,0,0-.219.365v.219a.448.448,0,0,0,.292.414,1.315,1.315,0,0,0,.755.95v.244a.134.134,0,0,1-.1.146l-.828.414a1.059,1.059,0,0,0-.171.146,3.187,3.187,0,0,0,1.779.536,3.123,3.123,0,0,0,1.706-.512.491.491,0,0,0-.219-.171l-.8-.414a.164.164,0,0,1-.1-.146v-.244a1.285,1.285,0,0,0,.755-.926Z" transform="translate(-187.128 -151.371)" fill="#d0e8f9"/>
    <path id="Path_553" data-name="Path 553" d="M179.461,221.087a3.3,3.3,0,0,1-1.9-.585l-.244-.146.195-.219a.855.855,0,0,1,.244-.195l.78-.39V219.5a1.528,1.528,0,0,1-.707-.926.656.656,0,0,1-.341-.585v-.219a.686.686,0,0,1,.244-.512,2.106,2.106,0,0,1,.146-.56.583.583,0,0,1,.073-.171c.049-.122.049-.122.024-.317-.024-.1-.024-.195-.049-.268a.265.265,0,0,1,.171-.292.277.277,0,0,1,.341.1,1.592,1.592,0,0,0,.195.171.992.992,0,0,0,.658.146h.146a1.5,1.5,0,0,1,1.706,1.218.686.686,0,0,1,.244.512v.219a.656.656,0,0,1-.341.585,1.622,1.622,0,0,1-.707.926v.049l.755.39a.716.716,0,0,1,.292.244l.171.219-.219.146A3.942,3.942,0,0,1,179.461,221.087Zm-1.316-.8a2.944,2.944,0,0,0,2.558.024l-.682-.341a.4.4,0,0,1-.219-.365v-.414l.146-.073a1.158,1.158,0,0,0,.634-.78l.024-.122.122-.049a.183.183,0,0,0,.122-.171v-.219a.165.165,0,0,0-.1-.146l-.122-.049-.024-.122c-.073-.634-.463-.9-1.218-.9h-.1a1.666,1.666,0,0,1-.853-.146.748.748,0,0,1-.1.365,1.188,1.188,0,0,0-.073.171,1.914,1.914,0,0,0-.122.536l-.024.122-.122.049a.2.2,0,0,0-.1.146v.219a.183.183,0,0,0,.122.171l.122.049.024.122a1.079,1.079,0,0,0,.609.78l.146.073v.414a.453.453,0,0,1-.219.365Z" transform="translate(-173.395 -143.381)" fill="#13436c"/>
  </g>
</svg>
