<svg id="XMLID_2_" xmlns="http://www.w3.org/2000/svg" width="19.334" height="19.334" viewBox="0 0 19.334 19.334">
  <path id="XMLID_4_" d="M6.905,0H1.381A1.381,1.381,0,0,0,0,1.381V6.905A1.381,1.381,0,0,0,1.381,8.286H6.905A1.381,1.381,0,0,0,8.286,6.905V1.381A1.381,1.381,0,0,0,6.905,0Z" transform="translate(0 0)" fill="#13436c"/>
  <path id="XMLID_6_" d="M6.905,120H1.381A1.381,1.381,0,0,0,0,121.381v5.524a1.381,1.381,0,0,0,1.381,1.381H6.905a1.381,1.381,0,0,0,1.381-1.381v-5.524A1.381,1.381,0,0,0,6.905,120Z" transform="translate(0 -108.952)" fill="#13436c"/>
  <path id="XMLID_8_" d="M126.905,0h-5.524A1.381,1.381,0,0,0,120,1.381V6.905a1.381,1.381,0,0,0,1.381,1.381h5.524a1.381,1.381,0,0,0,1.381-1.381V1.381A1.381,1.381,0,0,0,126.905,0Z" transform="translate(-108.952 0)" fill="#13436c"/>
  <path id="XMLID_10_" d="M126.905,120h-5.524A1.381,1.381,0,0,0,120,121.381v5.524a1.381,1.381,0,0,0,1.381,1.381h5.524a1.381,1.381,0,0,0,1.381-1.381v-5.524A1.381,1.381,0,0,0,126.905,120Z" transform="translate(-108.952 -108.952)" fill="#13436c"/>
</svg>
