<svg xmlns="http://www.w3.org/2000/svg" width="15.909" height="21" viewBox="0 0 15.909 21">
  <path id="waiting-svgrepo-com" d="M51.2,19.587h-1.25V17.355a7.023,7.023,0,0,0-3.456-5.791,1.274,1.274,0,0,1-.457-1.064,1.273,1.273,0,0,1,.457-1.064,7.024,7.024,0,0,0,3.456-5.791V1.413H51.2A.707.707,0,0,0,51.2,0H36.7a.707.707,0,0,0,0,1.413h1.25V3.644a7.023,7.023,0,0,0,3.456,5.791,1.273,1.273,0,0,1,.457,1.064,1.273,1.273,0,0,1-.457,1.064,7.023,7.023,0,0,0-3.456,5.791v2.231H36.7A.707.707,0,0,0,36.7,21H51.2a.707.707,0,0,0,0-1.413ZM43.246,7.8a.707.707,0,1,1,1.413,0V9.052a.707.707,0,0,1-1.413,0Zm.207,4.5a.706.706,0,1,1-.207.5A.712.712,0,0,1,43.453,12.3ZM39.6,19.594c.576-2.185,3.547-4.563,3.918-4.853a.707.707,0,0,1,.87,0c.371.29,3.341,2.668,3.917,4.853Z" transform="translate(-35.998)" fill="#13436c"/>
</svg>
