<svg xmlns="http://www.w3.org/2000/svg" width="10.86" height="11.29" viewBox="0 0 10.86 11.29">
  <g id="user-svgrepo-com-3" transform="translate(-36 57.356)">
    <g id="Group_7" data-name="Group 7">
      <path id="Path_524" data-name="Path 524" d="M10.466,76.087a17.67,17.67,0,0,0-3.181-2.042.1.1,0,0,1-.054-.089V72.9a2.468,2.468,0,0,0,.309-.846c.118-.01.274-.175.442-.767.216-.76.013-.913-.181-.913a1.422,1.422,0,0,0,.045-.194c.35-2.1-.684-2.17-.684-2.17a1.614,1.614,0,0,0-.62-.579,2.1,2.1,0,0,0-1.276-.27,2.032,2.032,0,0,0-.509.1h0a2.267,2.267,0,0,0-.56.286,2.926,2.926,0,0,0-.576.477A2.237,2.237,0,0,0,3,70.177H3c.013.064.029.13.045.194-.194,0-.385.162-.172.91.169.592.324.757.442.767a2.516,2.516,0,0,0,.309.846v1.053a.1.1,0,0,1-.054.089A17.766,17.766,0,0,0,.388,76.078,1.077,1.077,0,0,0,0,76.911v1.53H4.718l.464-2.128c-.942-1.314.07-1.377.248-1.377h0c.175,0,1.187.064.248,1.377l.464,2.128H10.86v-1.53A1.089,1.089,0,0,0,10.466,76.087Z" transform="translate(36 -124.508)" fill="#13436c"/>
    </g>
  </g>
</svg>
