<svg xmlns="http://www.w3.org/2000/svg" width="23.146" height="30.299" viewBox="0 0 23.146 30.299">
  <path id="director-authority-boss-master-svgrepo-com" d="M-303.6,159a4.632,4.632,0,0,1,4.632,4.632,4.632,4.632,0,0,1-4.632,4.632,4.632,4.632,0,0,1-4.632-4.632A4.632,4.632,0,0,1-303.6,159Zm-7.463,17.36a.548.548,0,0,1,.584-.584.541.541,0,0,1,.584.584V189.3h12.728V176.36a.548.548,0,0,1,.584-.584.548.548,0,0,1,.584.584V189.3h4.048V175.192a5.8,5.8,0,0,0-5.787-5.787h-1.167l-3.4,5.29-.41-3.961.559-1.341h-2.508l.559,1.341-.435,3.986-3.4-5.315h-1.366a5.8,5.8,0,0,0-5.787,5.787V189.3h4.048V176.36Z" transform="translate(315.1 -159)" fill="#fff"/>
</svg>
