<svg xmlns="http://www.w3.org/2000/svg" width="12.563" height="15.462" viewBox="0 0 12.563 15.462">
  <g id="timer-svgrepo-com" transform="translate(-57.375)">
    <g id="Group_6" data-name="Group 6" transform="translate(57.375)">
      <path id="Path_520" data-name="Path 520" d="M412.237,58.632l-.519.9,1.8,1.039.519-.9a.52.52,0,0,0-.191-.71l-.9-.519A.519.519,0,0,0,412.237,58.632Z" transform="translate(-402.766 -56.896)" fill="#13436c"/>
      <path id="Path_521" data-name="Path 521" d="M243.28,2.338a6.81,6.81,0,0,1,.966.077v-.84l.664-.005V.483A.483.483,0,0,0,244.427,0h-2.29a.483.483,0,0,0-.483.483V1.57l.659.005v.84A6.81,6.81,0,0,1,243.28,2.338Z" transform="translate(-236.998)" fill="#13436c"/>
      <path id="Path_522" data-name="Path 522" d="M63.656,114.75a6.281,6.281,0,1,0,6.281,6.281A6.281,6.281,0,0,0,63.656,114.75Zm2.935,9.233-3.66-2.534v-3.577h1.056V120.9l3.2,2.219Z" transform="translate(-57.375 -111.851)" fill="#13436c"/>
    </g>
  </g>
</svg>
